<svg width="328" height="328" viewBox="0 0 328 328" fill="none" xmlns="http://www.w3.org/2000/svg">
<path d="M163.55 6.43386C245.477 6.43386 312.952 69.4027 320.161 149.492H326.612C319.386 65.8523 249.01 0 163.532 0C78.0533 0 7.6775 65.8523 0.450684 149.492H6.90247C14.1473 69.4027 81.6217 6.43386 163.55 6.43386Z" fill="white"/>
<path d="M163.549 320.971C79.1886 320.971 10.1283 254.182 6.43375 170.704H0C3.69451 257.732 75.6202 327.405 163.549 327.405C251.461 327.405 323.404 257.732 327.099 170.704H320.665C316.988 254.182 247.928 320.971 163.549 320.971Z" fill="white"/>
<path d="M155.277 53.7775L116.602 149.492H132.786L163.549 73.3134L194.331 149.492H210.497L171.839 53.7775H155.277Z" fill="white"/>
<path d="M155.277 170.704L116.602 266.401H132.786L163.549 190.24L194.331 266.401H210.497L171.839 170.704H155.277Z" fill="white"/>
</svg>
