<svg xmlns="http://www.w3.org/2000/svg" width="21.545" height="13.113" viewBox="0 0 21.545 13.113">
  <g id="Raggruppa_113" data-name="Raggruppa 113" transform="translate(-1683.664 -2390.729)">
    <path id="Tracciato_4" data-name="Tracciato 4" d="M20.811,33.657c-.091-.009-.184-.02-.274-.036a1.88,1.88,0,0,1-.992-.487,1.126,1.126,0,0,1-.445-.9c.037-.187.2-.334.49-.434.642-.229,1.247-.442,1.855-.648l1.379-.46q.229-.079.461-.164a7.547,7.547,0,0,1,.844-.274c1.036-.362,2.021-.712,3-1.063.229-.081.516-.215.821-.356a5.2,5.2,0,0,1,1.713-.6l.112.007.106-.036c1.741-.62,3.613-1.278,5.519-1.915.2-.068.434-.161.683-.259a5.474,5.474,0,0,1,2.136-.554.825.825,0,0,1,.692.4,2.578,2.578,0,0,1,.249,1.555c-.047.154-.123.181-.148.191-2.037.739-4.23,1.481-6.7,2.269q-1.362.433-2.719.878c-1.874.616-3.436,1.157-4.964,1.778-.206.084-.411.17-.617.258a10.37,10.37,0,0,1-2.51.824,3.067,3.067,0,0,1-.69.021" transform="matrix(0.966, 0.259, -0.259, 0.966, 1673.937, 2361.175)" fill="#655f37"/>
  </g>
</svg>
