<svg xmlns="http://www.w3.org/2000/svg" width="21.545" height="20.619" viewBox="0 0 21.545 20.619">
  <g id="Raggruppa_112" data-name="Raggruppa 112" transform="translate(-1683.664 -2387.69)">
    <path id="Tracciato_4" data-name="Tracciato 4" d="M20.811,33.657c-.091-.009-.184-.02-.274-.036a1.88,1.88,0,0,1-.992-.487,1.126,1.126,0,0,1-.445-.9c.037-.187.2-.334.49-.434.642-.229,1.247-.442,1.855-.648l1.379-.46q.229-.079.461-.164a7.547,7.547,0,0,1,.844-.274c1.036-.362,2.021-.712,3-1.063.229-.081.516-.215.821-.356a5.2,5.2,0,0,1,1.713-.6l.112.007.106-.036c1.741-.62,3.613-1.278,5.519-1.915.2-.068.434-.161.683-.259a5.474,5.474,0,0,1,2.136-.554.825.825,0,0,1,.692.4,2.578,2.578,0,0,1,.249,1.555c-.047.154-.123.181-.148.191-2.037.739-4.23,1.481-6.7,2.269q-1.362.433-2.719.878c-1.874.616-3.436,1.157-4.964,1.778-.206.084-.411.17-.617.258a10.37,10.37,0,0,1-2.51.824,3.067,3.067,0,0,1-.69.021" transform="matrix(0.966, 0.259, -0.259, 0.966, 1673.937, 2361.175)" fill="#655f37"/>
    <path id="Tracciato_5" data-name="Tracciato 5" d="M1.317,18.752a1.524,1.524,0,0,1-.152-.035C.092,18.415-.02,17.828,0,17.352c.041-.871.5-1.2,1.209-1.589l.153-.086a27.028,27.028,0,0,1,3.187-1.53c.915-.374,1.851-.717,2.757-1.047l.033-.013c1.161-.424,2.478-.905,3.731-1.459.988-.438,2.025-.956,3.266-1.633q.809-.442,1.615-.9c.119-.067.246-.155.375-.243a1.583,1.583,0,0,1,.9-.4,1.143,1.143,0,0,1,.435.277c.264.219.294.341.083,1.366-.033.166-.064.32-.094.474-.013.052-.158.305-1.329.8-.179.077-.321.136-.409.187-.784.444-1.6.885-2.426,1.309-.809.418-1.646.783-2.455,1.138-1.052.463-2.12.93-3.152,1.511l-.094.044c-.58.273-1.168.55-1.757.83q-.665.32-1.328.645c-.765.376-1.533.743-2.3,1.11l-.059.029a2.337,2.337,0,0,0-.565.343l-.1.088a.78.78,0,0,1-.149.122.281.281,0,0,1-.135.035.812.812,0,0,1-.083,0" transform="matrix(0.454, -0.891, 0.891, 0.454, 1678.259, 2399.794)" fill="#655f37"/>
  </g>
</svg>
